# xmcd database file
#
# Track frame offsets:
# 150
# 11617
# 22352
# 34002
# 44517
# 54374
# 64169
# 78139
# 90289
# 99640
# 109130
# 118849
# 129681
# 142809
# 153804
# 163586
# 176508
# 188503
# 200403
# 210418
# 223901
# 234978
# 247448
# 257066
# 268338
# 278671
# 289941
# 303556
# 316191
# 330131
# 344861
#
# Disc length: 4759 seconds
#
# Revision: 0
# Processed by: cddbd v1.5.2PL0 Copyright (c) Steve Scherf et al.
# Submitted via: CD-Runner 2011.01
#
DISCID=c612951f
DTITLE=Eddy Arnold - RCA Singles 1955-1969
DYEAR=2011
DGENRE=Country
TTITLE0=The Cattle Call
TTITLE1=The Richest Man (In The World)
TTITLE2=You Don't Know Me
TTITLE3=I Wouldn't Know Where To Begin
TTITLE4=Gonna Find Me A Bluebird
TTITLE5=Chip Off The Old Block
TTITLE6=Tennessee Stud
TTITLE7=One Grain Of Sand
TTITLE8=Tears Broke Out On Me
TTITLE9=A Little Heartache
TTITLE10=After Loving You
TTITLE11=Does He Mean That Much To You?
TTITLE12=Molly
TTITLE13=I Thank My Lucky Stars
TTITLE14=What's He Doin' In My World
TTITLE15=I'm Letting You Go
TTITLE16=Make The World Go Away
TTITLE17=I Want To Go With You
TTITLE18=The Last Word In Lonesome Is Me
TTITLE19=The Tip Of My Fingers
TTITLE20=Somebody Like Me
TTITLE21=Lonely Again
TTITLE22=Misty Blue
TTITLE23=Turn The World Around
TTITLE24=Here Comes Heaven
TTITLE25=Here Comes The Rain, Baby (mono)
TTITLE26=It's Over
TTITLE27=Then You Can Tell Me Goodbye
TTITLE28=They Don't Make Love Like They Used To
TTITLE29=Please Don't Go
TTITLE30=I Want To Go With You (alternate version)
EXTD=
EXTT0=Eddy Arnold
EXTT1=Eddy Arnold
EXTT2=Eddy Arnold
EXTT3=Eddy Arnold
EXTT4=Eddy Arnold
EXTT5=Eddy Arnold
EXTT6=Eddy Arnold
EXTT7=Eddy Arnold
EXTT8=Eddy Arnold
EXTT9=Eddy Arnold
EXTT10=Eddy Arnold
EXTT11=Eddy Arnold
EXTT12=Eddy Arnold
EXTT13=Eddy Arnold
EXTT14=Eddy Arnold
EXTT15=Eddy Arnold
EXTT16=Eddy Arnold
EXTT17=Eddy Arnold
EXTT18=Eddy Arnold
EXTT19=Eddy Arnold
EXTT20=Eddy Arnold
EXTT21=Eddy Arnold
EXTT22=Eddy Arnold
EXTT23=Eddy Arnold
EXTT24=Eddy Arnold
EXTT25=Eddy Arnold
EXTT26=Eddy Arnold
EXTT27=Eddy Arnold
EXTT28=Eddy Arnold
EXTT29=Eddy Arnold
EXTT30=Eddy Arnold
PLAYORDER=
